ffmpeg started on 2025-07-07 at 19:37:25
Report written to "D:\Convert\FFMetrics\reports\psnr_report-6.txt"
Log level: 32
Command line:
ffmpeg -hide_banner -nostdin -i "D:\\\xc0\xed\xe8\xec\xe5\\[\xd2\xee\xef-5]\\\xd1\xf2\xe0\xeb\xfc\xed\xe0\xff \xf2\xf0\xe5\xe2\xee\xe3\xe0!\\\xd2\xc2-3\\Full Metal Panic! Fumoffu [Opening & Ending]\\Full Metal Panic! Fumoffu ED2_HEVC.mkv" -i "D:\\\xc0\xed\xe8\xec\xe5\\[\xd2\xee\xef-5]\\\xd1\xf2\xe0\xeb\xfc\xed\xe0\xff \xf2\xf0\xe5\xe2\xee\xe3\xe0!\\\xd2\xc2-3\\Full Metal Panic! Fumoffu [Opening & Ending]\\Full Metal Panic! Fumoffu ED2.mkv" -lavfi "[0:v]settb=AVTB,setpts=PTS-STARTPTS,format=pix_fmts=yuv420p10,fps=30000/1001,scale=1440:1080:flags=bicubic[main];[1:v]settb=AVTB,setpts=PTS-STARTPTS,format=pix_fmts=yuv420p,fps=30000/1001,scale=1440:1080:flags=bicubic[ref];[main][ref]psnr=eof_action=endall:stats_file='D\\:/Convert/FFMetrics/logs/psnr_logfile-6.txt'" -f null -
[aist#0:1/aac @ 0000023f9c8d7dc0] Guessed Channel Layout: 5.1
Input #0, matroska,webm, from 'D:\Аниме\[Топ-5]\Стальная тревога!\ТВ-3\Full Metal Panic! Fumoffu [Opening & Ending]\Full Metal Panic! Fumoffu ED2_HEVC.mkv':
  Metadata:
    ENCODER         : Lavf61.7.100
  Duration: 00:01:01.72, start: -0.021000, bitrate: 824 kb/s
  Stream #0:0(jpn): Video: hevc (Main 10), yuv420p10le(tv, bt709, progressive), 1440x1080 [SAR 1:1 DAR 4:3], 29.97 fps, 29.97 tbr, 1k tbn (default)
      Metadata:
        title           : Full Metal Panic? Fumoffu Eizou Tokuten - NC ED2
        ENCODER         : Lavc61.19.100 libx265
        BPS             : 630617
        DURATION        : 00:01:01.661366666
        NUMBER_OF_FRAMES: 1848
        NUMBER_OF_BYTES : 4860565
        _STATISTICS_WRITING_APP: mkvpropedit v66.0.0 ('Josie') 64-bit
        _STATISTICS_WRITING_DATE_UTC: 2025-07-07 16:28:26
        _STATISTICS_TAGS: BPS DURATION NUMBER_OF_FRAMES NUMBER_OF_BYTES
  Stream #0:1(jpn): Audio: aac (LC), 48000 Hz, 5.1, fltp (default)
      Metadata:
        title           : Original Audio
        ENCODER         : Lavc61.19.100 aac
        BPS             : 189733
        DURATION        : 00:01:01.696000000
        NUMBER_OF_FRAMES: 2893
        NUMBER_OF_BYTES : 1463225
        _STATISTICS_WRITING_APP: mkvpropedit v66.0.0 ('Josie') 64-bit
        _STATISTICS_WRITING_DATE_UTC: 2025-07-07 16:28:26
        _STATISTICS_TAGS: BPS DURATION NUMBER_OF_FRAMES NUMBER_OF_BYTES
Input #1, matroska,webm, from 'D:\Аниме\[Топ-5]\Стальная тревога!\ТВ-3\Full Metal Panic! Fumoffu [Opening & Ending]\Full Metal Panic! Fumoffu ED2.mkv':
  Metadata:
    encoder         : libebml v0.7.7 + libmatroska v0.8.1
    creation_time   : 2008-12-30T05:29:21.000000Z
  Duration: 00:01:01.70, start: 0.000000, bitrate: 3199 kb/s
  Stream #1:0(jpn): Video: h264 (High), yuv420p(progressive), 1440x1080, SAR 1:1 DAR 4:3, 29.97 fps, 29.97 tbr, 1k tbn (default)
      Metadata:
        title           : Full Metal Panic? Fumoffu Eizou Tokuten - NC ED2
  Stream #1:1(jpn): Audio: ac3, 48000 Hz, 5.1(side), fltp, 448 kb/s (default)
      Metadata:
        title           : Original Audio
Stream mapping:
  Stream #0:0 (hevc) -> settb:default
  Stream #1:0 (h264) -> settb:default
  psnr:default -> Stream #0:0 (wrapped_avframe)
  Stream #0:1 -> #0:1 (aac (native) -> pcm_s16le (native))
[swscaler @ 0000023fae36fac0] No accelerated colorspace conversion found from yuv420p to bgr48le.
[swscaler @ 0000023fae4c7a80] No accelerated colorspace conversion found from yuv420p to bgr48le.
[swscaler @ 0000023fae515400] No accelerated colorspace conversion found from yuv420p to bgr48le.
[swscaler @ 0000023fae69d0c0] No accelerated colorspace conversion found from yuv420p to bgr48le.
[swscaler @ 0000023fae70fa80] No accelerated colorspace conversion found from yuv420p to bgr48le.
[swscaler @ 0000023fae82d180] No accelerated colorspace conversion found from yuv420p to bgr48le.
[swscaler @ 0000023fb256b040] No accelerated colorspace conversion found from yuv420p to bgr48le.
[swscaler @ 0000023fb262d040] No accelerated colorspace conversion found from yuv420p to bgr48le.
[swscaler @ 0000023fb27119c0] No accelerated colorspace conversion found from yuv420p to bgr48le.
[swscaler @ 0000023fb277d040] No accelerated colorspace conversion found from yuv420p to bgr48le.
[swscaler @ 0000023fb28d2040] No accelerated colorspace conversion found from yuv420p to bgr48le.
[swscaler @ 0000023fb28ec000] No accelerated colorspace conversion found from yuv420p to bgr48le.
[swscaler @ 0000023fb2992880] No accelerated colorspace conversion found from yuv420p to bgr48le.
[swscaler @ 0000023fb29f6040] No accelerated colorspace conversion found from yuv420p to bgr48le.
[swscaler @ 0000023fb2a11140] No accelerated colorspace conversion found from yuv420p to bgr48le.
[swscaler @ 0000023fb2b1a040] No accelerated colorspace conversion found from yuv420p to bgr48le.
Output #0, null, to 'pipe:':
  Metadata:
    encoder         : Lavf61.7.100
  Stream #0:0: Video: wrapped_avframe, yuv420p10le(tv, bt709, progressive), 1440x1080 [SAR 1:1 DAR 4:3], q=2-31, 200 kb/s, 29.97 fps, 29.97 tbn
      Metadata:
        encoder         : Lavc61.19.100 wrapped_avframe
  Stream #0:1(jpn): Audio: pcm_s16le, 48000 Hz, 6 channels, s16, 4608 kb/s (default)
      Metadata:
        title           : Original Audio
        _STATISTICS_TAGS: BPS DURATION NUMBER_OF_FRAMES NUMBER_OF_BYTES
        BPS             : 189733
        DURATION        : 00:01:01.696000000
        NUMBER_OF_FRAMES: 2893
        NUMBER_OF_BYTES : 1463225
        _STATISTICS_WRITING_APP: mkvpropedit v66.0.0 ('Josie') 64-bit
        _STATISTICS_WRITING_DATE_UTC: 2025-07-07 16:28:26
        encoder         : Lavc61.19.100 pcm_s16le
frame=   41 fps=0.0 q=-0.0 size=N/A time=00:00:01.36 bitrate=N/A speed= 2.6x    frame=   81 fps= 78 q=-0.0 size=N/A time=00:00:02.70 bitrate=N/A speed= 2.6x    frame=  145 fps= 94 q=-0.0 size=N/A time=00:00:04.83 bitrate=N/A speed=3.13x    frame=  198 fps= 95 q=-0.0 size=N/A time=00:00:06.60 bitrate=N/A speed=3.18x    frame=  246 fps= 95 q=-0.0 size=N/A time=00:00:08.20 bitrate=N/A speed=3.18x    frame=  303 fps= 98 q=-0.0 size=N/A time=00:00:10.11 bitrate=N/A speed=3.27x    frame=  354 fps= 98 q=-0.0 size=N/A time=00:00:11.81 bitrate=N/A speed=3.26x    frame=  400 fps= 97 q=-0.0 size=N/A time=00:00:13.34 bitrate=N/A speed=3.23x    frame=  465 fps=100 q=-0.0 size=N/A time=00:00:15.51 bitrate=N/A speed=3.34x    frame=  519 fps=100 q=-0.0 size=N/A time=00:00:17.31 bitrate=N/A speed=3.35x    frame=  568 fps=100 q=-0.0 size=N/A time=00:00:18.95 bitrate=N/A speed=3.33x    frame=  627 fps=101 q=-0.0 size=N/A time=00:00:20.92 bitrate=N/A speed=3.37x    frame=  680 fps=101 q=-0.0 size=N/A time=00:00:22.68 bitrate=N/A speed=3.38x    frame=  728 fps=101 q=-0.0 size=N/A time=00:00:24.29 bitrate=N/A speed=3.35x    frame=  788 fps=102 q=-0.0 size=N/A time=00:00:26.29 bitrate=N/A speed=3.39x    frame=  834 fps=101 q=-0.0 size=N/A time=00:00:27.82 bitrate=N/A speed=3.36x    frame=  893 fps=102 q=-0.0 size=N/A time=00:00:29.79 bitrate=N/A speed=3.39x    frame=  940 fps=101 q=-0.0 size=N/A time=00:00:31.36 bitrate=N/A speed=3.37x    frame=  999 fps=102 q=-0.0 size=N/A time=00:00:33.33 bitrate=N/A speed=3.39x    frame= 1042 fps=101 q=-0.0 size=N/A time=00:00:34.76 bitrate=N/A speed=3.36x    frame= 1100 fps=101 q=-0.0 size=N/A time=00:00:36.70 bitrate=N/A speed=3.38x    frame= 1154 fps=101 q=-0.0 size=N/A time=00:00:38.50 bitrate=N/A speed=3.39x    frame= 1206 fps=101 q=-0.0 size=N/A time=00:00:40.24 bitrate=N/A speed=3.39x    frame= 1254 fps=101 q=-0.0 size=N/A time=00:00:41.84 bitrate=N/A speed=3.38x    frame= 1312 fps=102 q=-0.0 size=N/A time=00:00:43.77 bitrate=N/A speed=3.39x    frame= 1365 fps=102 q=-0.0 size=N/A time=00:00:45.54 bitrate=N/A speed=3.39x    frame= 1419 fps=102 q=-0.0 size=N/A time=00:00:47.34 bitrate=N/A speed= 3.4x    frame= 1469 fps=102 q=-0.0 size=N/A time=00:00:49.01 bitrate=N/A speed=3.39x    frame= 1526 fps=102 q=-0.0 size=N/A time=00:00:50.91 bitrate=N/A speed= 3.4x    frame= 1579 fps=102 q=-0.0 size=N/A time=00:00:52.68 bitrate=N/A speed= 3.4x    frame= 1625 fps=101 q=-0.0 size=N/A time=00:00:54.22 bitrate=N/A speed=3.38x    frame= 1685 fps=102 q=-0.0 size=N/A time=00:00:56.22 bitrate=N/A speed= 3.4x    frame= 1736 fps=102 q=-0.0 size=N/A time=00:00:57.92 bitrate=N/A speed= 3.4x    frame= 1790 fps=102 q=-0.0 size=N/A time=00:00:59.72 bitrate=N/A speed= 3.4x    frame= 1847 fps=102 q=-0.0 size=N/A time=00:01:01.62 bitrate=N/A speed=3.41x    [Parsed_psnr_10 @ 0000023f9c6c1280] PSNR y:49.604259 u:49.943946 v:51.051622 average:49.871946 min:44.451588 max:inf
[out#0/null @ 0000023f9c6f1dc0] video:794KiB audio:34716KiB subtitle:0KiB other streams:0KiB global headers:0KiB muxing overhead: unknown
frame= 1848 fps=102 q=-0.0 Lsize=N/A time=00:01:01.66 bitrate=N/A speed=3.41x    
